<svg width="109" height="66" viewBox="0 0 109 66" fill="none" xmlns="http://www.w3.org/2000/svg">
<path d="M108.272 13.9981L108.552 13.6593L108.574 13.2808L108.676 13.0608L108.738 12.8193L108.614 12.3795L108.454 12.0587L108.228 11.7991L107.744 11.3593L107.161 11.0385L107.099 10.9195L106.837 10.7609L106.553 10.8402L106.291 11.0204L105.989 11.1178H104.838L104.613 11.2403H104.576L104.492 11.1394L104.212 10.5806L103.99 9.81997L103.786 9.34051L102.596 7.77955L102.537 7.75792L102.472 7.73989H102.413L102.111 7.89851L101.871 7.92014L101.605 7.85886L101.281 7.73989H101.161L101.099 7.75792L100.979 7.85886L100.859 7.89851L100.735 7.88049L100.637 7.77955L99.8466 6.57909L99.6682 6.09963L99.6463 5.76076L99.6864 5.47957V5.23804L99.5662 5.03976L99.4424 5.02174L99.0019 5.03976V4.65764L99.2422 3.94024L98.6778 3.65906L98.1317 3.57975L97.6037 3.77802L97.4435 3.95827H97.4035L97.0212 3.89698L96.7153 4.27911L96.435 4.49902L96.1328 4.57833L95.1606 4.48099L94.8766 4.49902L94.5781 4.59996L93.7261 4.63961L93.4858 4.74055L93.0015 5.02174L92.3134 5.11907L91.4869 5.54086L90.999 5.57691L90.4965 5.41829L90.0706 5.09744L89.6882 4.65764L88.778 3.28053L88.6579 3.02097L88.4576 2.04042L88.3156 1.75923L88.0498 1.70155H87.4454L87.2015 1.57898L87.1032 1.42036L86.9612 0.958925L86.8592 0.760651L86.7172 0.638082L86.4369 0.522722L85.8907 0.201879L85.665 0.140594L84.8385 0.400153L84.296 0.418178L84.0302 0.479463L83.7061 0.659712L83.5678 0.879615L83.4658 1.13917L83.2838 1.40234L83.0398 1.53933L82.8614 1.46002L82.6575 1.3014L82.3735 1.17883L81.8492 1.3014L80.5967 1.89983L80.1926 1.79889L79.8685 1.47804L79.428 1.27977L78.9619 1.20046L78.5578 1.21848L77.9934 1.17883L77.0613 0.681341L76.5589 0.620057L76.3368 0.558772L75.8707 0.118964L75.6268 0H75.3646L71.9712 0.778676L70.9809 0.839961L70.5185 1.02021L70.4966 1.20046V1.39873L70.5367 1.82052V2.05844L70.5185 2.13775L70.2927 2.4586L69.7684 3.01737L69.5281 3.33821L69.3461 3.72034L68.7198 5.62017L68.3776 6.2979L67.9734 6.89993L67.5074 7.35777L67.1433 7.53802L66.943 7.45871L66.761 7.26043L66.437 7.09821L66.2549 7.18112L65.7707 7.62093L65.5085 7.73989L65.2245 7.71826L65.0643 7.66059L64.9223 7.67861L64.7221 7.92014L64.6602 8.07876L64.5801 8.51857L64.4563 8.73847L64.3143 8.83941L64.0121 8.95838L63.3276 9.38016L62.7195 9.57844L62.3554 9.80194L61.6309 10.4797L61.2449 10.6203L60.9027 10.5013L60.2946 9.93893L59.9123 9.81997L59.3298 10.0399L59.1659 10.0182L59.0239 9.80194L59.064 9.60006L59.1659 9.39819V9.17828L58.8819 8.83941L58.4996 8.77813L57.7532 8.91872L57.5894 8.83941L57.2471 8.41763L57.0651 8.25901L56.9049 8.21936H56.741L55.2664 8.59788L54.9824 8.7601L54.8004 9.10258L54.662 10.0182L54.48 10.4004V10.4617L54.4982 10.5986V10.8402L54.48 10.9591L53.6098 11.5612L51.4288 11.5215L50.4603 12.1416L50.2783 12.1812L48.2794 11.9397L47.3072 12.0803L46.6409 12.0406L46.4006 12.1416L44.0959 12.6607L43.8119 12.8806L43.3896 13.7602L43.2294 13.8792L42.9235 13.9405L42.7852 14.0198L42.5813 14.2793L42.5995 14.3586L42.7233 14.4596L42.7852 14.7408L42.6213 15.7213L42.5813 16.2188L42.6832 16.6586L43.1492 17.1201L43.7719 17.5599L43.3495 17.7005L42.9854 17.8014L42.7014 17.9997L42.1771 18.6017L41.7912 18.8396L41.3288 18.8793L40.8445 18.7783L40.2583 18.5188L39.5301 18.4611L36.2387 18.8396L35.0262 19.3191L34.4218 19.3804L32.4411 19.1821L27.8353 19.4813L26.4808 19.1208L25.4322 18.5584L25.272 18.3782L25.1482 18.1403L24.846 17.8591L24.5038 17.6211L24.2598 17.4986L24.0778 17.5202L23.9176 17.5995H23.7537L23.5535 17.4012L23.0073 16.6009L22.8654 16.5L22.4612 16.4207L22.301 16.3594L22.1372 16.2188L20.4842 14.0378L19.9781 13.6196L18.9258 13.461L18.0993 13.2411L17.5131 13.1185L16.9269 13.479L15.9184 14.319L16.0786 14.5209V14.6579L15.9985 14.8021L15.9584 15.0003L15.9366 15.04L15.7982 15.1409L15.7582 15.2022L15.7764 15.2995L15.8565 15.3392L15.9366 15.3608L15.9803 15.3969L15.9184 15.8187L15.8164 16.1395L15.6562 16.381L15.3941 16.5793L14.8261 16.6983L14.6258 16.7992V17.0588L14.7241 17.1597L15.07 17.3183L15.1902 17.4193L15.354 17.8591L15.4523 17.9997L15.2302 18.2809L15.2521 18.6774L15.354 19.1605L15.3722 19.9175L15.4523 20.1591L15.5943 20.3213L15.7764 20.4402L15.4523 20.5989L14.4037 20.6818L13.1294 20.999L12.525 20.8801L12.281 20.26L12.0589 20.4402L11.7349 20.9413L11.5565 21.118L11.4145 21.1612L10.5042 21.0206L10.3222 20.9197L10.1401 20.7395L10.02 20.5015L9.96172 20.26L9.87798 20.0401L9.67408 19.8995L8.38518 19.3984L7.71524 19.3191L7.13268 19.5823L7.03073 19.8202L7.04894 20.141L6.96883 20.3393L6.82684 20.4799L6.18238 20.8188L5.97849 20.981L5.88018 21.0387L5.80008 21.0206L5.71634 20.9413L5.61803 20.8188L5.49424 20.9413L5.25393 21.3415L5.11194 21.5181L5.39593 21.6804L6.28433 22.0409L6.72853 21.9399L7.77713 22.3581L8.30507 22.2608L8.64733 22.4194L8.93132 22.7979L9.06968 23.281L8.98958 23.7424L9.25173 23.901L9.47383 24.1209L9.59762 24.4201L9.57578 24.7806L9.39373 25.0799L8.93132 25.2817L8.74563 25.48L8.80753 26.4209L7.97739 27.059L6.24428 27.8377L6.06223 27.5385L5.84013 27.3979L5.63624 27.4591L5.47603 27.7584L5.51608 28.6596L5.47603 28.7389L5.39593 28.7786L5.31219 28.8399V28.9804L5.35224 29.0814L5.45419 29.1174L5.51608 29.1391L5.55613 29.1787L6.04039 30.1989L6.10228 30.5775L6.00033 30.8983L5.77823 31.1002L5.27214 31.3597L5.33403 31.7599L5.09009 32.279L5.15199 32.6575L5.25393 32.7404H5.51608L5.61803 32.9027V33.0973L5.47603 33.4975V33.6201L5.69813 33.7607L6.24064 33.4975L6.50643 33.5191L6.70668 33.8003L6.62658 34.0815L6.26249 34.561L5.92023 34.7592L5.81829 35.0981L5.93844 35.4009L6.26249 35.5199L6.44453 35.6208L6.50643 35.7398L6.44453 35.8587L6.26249 35.9813L5.53429 36.2805L5.33403 36.4608L5.79644 36.5185L6.01854 36.5978L6.24064 36.8177L6.32438 37.0808L6.01854 37.1601H5.59619L5.33403 37.1998L5.25393 37.2575L5.17383 37.2791L5.09009 37.2575L5.00999 37.1998L4.72963 36.9979L4.38374 36.9583L3.73565 37.0412L3.13124 36.9186L2.90914 36.9402L2.74894 37.1998L2.68704 37.5603L2.54504 37.6612L2.38484 37.7009L2.221 37.8415L2.18095 37.9785L2.20279 38.0974V38.238L2.10085 38.4003L1.98069 38.4796L1.63844 38.6202L1.23429 38.9194L1.05224 39.1213L0.462404 39.8999L0.262151 40.0982L0 40.2208L0.666299 40.3794L2.86909 40.1991L3.01109 40.3001L3.3315 40.6786L3.45529 40.7615L3.69559 40.7832L3.7757 40.8985L3.73565 41.1004L3.63734 41.378L3.53539 41.6375L3.3315 41.998L3.27324 42.2576L3.31329 42.3405L3.53539 43.0002L3.71744 43.2417L3.85944 43.5013L3.9978 43.6816L4.2199 43.6383V44.0204L4.44199 44.1214L4.74784 44.1394L4.99178 44.3016L5.09009 44.7414L4.86799 44.9577L4.56579 45.0983L4.42379 45.3182L4.54394 45.6391L4.84978 45.859L5.41414 46.1978L6.00033 47.0378L6.54648 47.4992L6.76858 48.5014L6.86689 48.5807L7.55503 48.9989L7.77713 49.2188H7.87908L7.93734 49.0205L8.03928 48.9412L8.15944 48.9593L8.30507 49.0602L8.72743 49.1395L9.06968 49.381L9.37188 49.7379L9.63403 50.1777L9.93987 50.5599L10.4241 50.8591L10.6244 51.2592H10.7482L10.8683 50.9384L10.9885 51.0213L11.4145 51.1186L11.4946 51.1619L11.5747 51.2196L11.6366 51.3025L11.6948 51.3782L11.7968 51.4791L11.8368 51.3998L11.8769 51.3025H11.957L12.1609 51.5008L12.4012 51.818L12.565 52.2001L12.5031 52.5606L12.7871 53.3609L12.8891 53.5015L13.0092 53.5989L13.6136 54.2982L14.0178 55.0409L14.1816 55.2391L15.03 55.9205L15.172 56.1007L15.2521 56.3423L15.4341 56.5405L16.2024 57.1209L16.4427 57.2399L17.7571 57.2795L17.9391 57.3805L18.5836 58.2204L18.6673 58.4404L18.8676 59.1794L18.9076 59.3993L19.0278 59.7814L19.2717 59.8787L19.5339 59.9184L19.6759 60.1203L19.5557 60.1383L19.3518 60.2392L19.2317 60.2609V60.4195L19.472 60.4988L19.654 60.661L19.8179 60.7007L19.9781 60.4195L20.08 60.8196L20.0582 61.0179L20.1201 61.0792L20.4441 61.0612L20.8264 60.9206L20.9866 60.9999L21.0886 61.3784L21.1687 61.3207L21.2306 61.2414L21.2706 61.1621L21.4126 61.0792L22.7853 61.1405L23.4734 61.2811L24.0596 61.5406L24.8242 62.3409L24.948 62.5608L24.9662 62.7375L25.0499 63.08L25.0681 63.3395L25.13 63.6207L25.2502 63.7L25.6143 63.7216L27.5731 64.3201L27.9773 64.6589L28.3013 65.1997V65.3187L28.5016 65.2826L28.6035 65.1204L28.6836 64.9401L28.8256 64.8608H30.1983L31.895 65.3187H32.077L32.2591 65.261L32.5431 65.0591L32.6851 65.0194H34.0177L34.3199 65.1204L34.8041 65.4809H35.1682L35.4522 65.7801L35.7326 65.8774L36.0166 65.7801L36.2787 65.6395H36.5409L36.803 65.9784L36.905 66H37.1271L37.2509 65.9603L37.5531 65.7224L38.1174 65.0411L38.3796 64.8608L38.7437 65.0194L39.1697 64.8608L39.8542 64.2804L40.0581 64.0389L40.4003 63.3611L40.6406 63.1016H40.6625L40.7025 62.961L40.7426 62.6798L40.8045 62.5608L41.1686 62.2003L41.529 62.1607L42.3191 62.4383L42.9454 62.7807L43.1492 62.7988L43.3095 62.7014L43.3713 62.5392L43.4514 62.3193L43.6117 62.0814L43.8155 62.2616H43.9758L44.2597 62.0814L44.5802 61.9804L44.7622 61.8795L44.926 61.6993L45.1664 61.6812H45.2465L46.1567 61.7425L46.2805 61.7786L46.4807 61.8795L46.539 61.8398L46.5608 61.8218L46.5791 61.7605V61.7425L46.539 61.6596L46.5026 61.6019L46.4188 61.4793L46.4006 61.4L46.4188 61.3207L46.4625 61.2414L46.8412 60.9819L47.005 60.9999L47.2453 61.0395L47.533 60.9602L47.5512 60.2825L47.7951 59.8391L48.1556 59.6805L48.5197 59.8211L48.6617 60.0986L48.7418 60.2609L48.8219 60.3005L49.1059 60.4591L50.5186 60.5997L50.9664 60.5204L50.9846 60.4808L51.1485 60.2825L51.1849 60.0986L51.2067 59.9977L51.3305 59.6805L51.549 59.5002L51.6327 59.4425L51.833 59.3993L51.9131 59.3813H52.5175L52.7833 59.2803L52.9435 59.1001L53.0673 58.8802L53.1656 58.7215L53.1874 58.6783L53.3877 58.5809L53.5697 58.5593L53.7117 58.5016L53.9739 58.2781L54.0758 58.1195L54.1341 58.0186L54.1559 57.9573L54.196 57.9212L54.2761 57.8203L54.4982 57.7013L54.7021 57.6004L54.662 57.4201L54.5783 57.2579L54.5601 57.2002V57.1786L54.5382 57.02L54.7021 56.8397L54.7822 56.7604L54.9824 56.6415L55.1645 56.5189L55.4485 56.3999L55.5686 56.3423L55.6524 56.3206L55.8526 56.2774H56.1985L57.1233 56.1007H57.4692L57.8115 56.2197L58.5797 56.6991L59.1441 57.0596L59.4281 57.1209L61.0046 56.4792L61.5289 56.3603L61.6527 56.3423L62.6795 56.4396L63.3458 56.8181L63.5278 56.8001L63.8519 56.7604L64.114 56.6198L64.256 56.5405L64.3762 56.5189H64.4162L64.6784 56.5802L64.7403 56.6198L64.7621 56.6415L64.9223 56.8614L65.0243 56.919L65.0425 56.9407H65.1444L65.5085 56.7821L65.5486 56.7604L65.8289 56.8794L66.6991 57.622L67.3436 56.8001L69.9323 56.7172L70.3146 56.1007L70.9845 56.2413L71.629 56.5009L72.095 56.919L72.2552 57.02L72.4555 57.0993H72.5793L73.4859 56.919L73.8099 56.7604L74.0539 56.5009L74.134 56.2774L74.1522 55.9421L74.2359 55.7799L74.3561 55.7402L74.4981 55.7979L74.6364 55.8195L74.7602 55.7006V55.5203L74.6182 55.0012V54.7813L74.6801 54.6587L75.3064 54.1396L75.6304 53.9594L75.9727 53.8584L76.2931 53.8801L76.4351 53.9594L76.7191 54.2009L76.9011 54.2586L77.0613 54.2406L77.3016 54.1216L77.4072 54.0783L77.6876 54.1396L78.2956 54.3992H78.616L78.758 54.3415H78.9037L79.0202 54.3992L79.1221 54.5398L79.428 54.7993L79.7083 54.6984L80.4766 53.7791L80.5749 53.7214H81.0409L81.1829 53.5989L81.365 53.242L81.507 52.7986L81.5288 51.7603L81.689 51.2592L81.9512 50.9384L82.2752 50.8411L82.9634 50.8194L83.3457 50.5382L83.2437 50.0407L82.7777 49.1611L82.8214 48.6817L83.0398 48.3212L83.3238 47.9787L83.5277 47.5605L83.586 46.6809L83.6879 46.2411L83.9319 45.9419L84.2741 45.859L84.8603 45.8986L85.2026 45.7184L85.5266 45.2786L85.665 44.9L85.8507 44.6405L86.2949 44.5612L86.6189 44.3809L86.8993 43.9591L86.9612 43.5013L86.5352 43.2021L86.4951 43.1588L86.4551 43.1012L86.415 43.0399L86.4369 42.8993L86.4769 42.7623L86.5352 42.6397L86.6189 42.5208L86.9612 41.5799L87.1614 41.1977L87.5073 40.8805L88.0899 40.7183L88.2537 40.5777L88.3957 40.2785V40.0189L88.3338 39.781L88.3156 39.4998L88.3338 39.2186L88.3556 39.1609L88.4358 39.1393L89.1603 38.5409L89.3059 38.3786L89.6081 37.2395L89.6664 37.2178V37.1998L89.528 36.9186L89.4043 36.8177L89.2404 36.7996L89.1021 36.7384L89.0402 36.5401L89.6664 35.8011L90.0305 35.4586L90.8206 34.9395L91.141 34.6186L91.2429 34.4204L91.3231 34.0202L91.3849 33.8003L91.5451 33.5804L91.9092 33.2415L92.0512 33.0613L92.1532 32.7801V32.5602L92.1131 32.3403V32.0807L92.1714 31.8176L92.3534 31.4787L92.4335 31.2588L92.6156 30.4188L92.7175 30.1412L93.3438 29.24L93.646 28.9192L93.93 28.7389L94.6582 28.519L94.9786 27.8809L94.9604 27.0986L94.8184 26.2803L94.7783 25.5413L95.0805 24.9609L95.5648 24.4418L96.5551 23.6991L97.3452 23.4973L97.5637 23.3386L97.6438 23.1584L97.6693 22.9782V22.7979L97.6875 22.6393L98.0916 22.0805L98.1499 21.8786L98.2118 21.4388L98.27 21.2586L98.3938 21.0783L98.656 20.8801L98.7761 20.7611L99.1402 20.2384L99.3223 20.0617L99.6245 19.8995L99.9085 19.8022L100.112 19.7805L100.859 19.8995L101.081 19.8779L101.303 19.8022L101.423 19.5787L101.685 18.6378L102.17 18.5188L103.36 19.1388L103.928 19.2182L104.536 19.1388L105.119 18.9009L105.585 18.4972L105.989 17.978L106.189 17.8194L106.513 17.6788L106.855 17.6392L106.961 17.5779L107.099 17.3183L107.059 17.1381L106.979 16.9795V16.7812L107.158 16.4603L107.423 16.2801L108.068 16.0386L108.334 15.8006L108.738 15.058L109 14.7588L108.414 14.2793L108.272 13.9981Z" fill="black"/>
<circle cx="47.5" cy="24.5" r="2.5" fill="white"/>
</svg>
