<svg width="26" height="26" viewBox="0 0 26 26" fill="none" xmlns="http://www.w3.org/2000/svg">
<path d="M19.9062 4.06299C18.7778 4.06299 17.875 4.97557 17.875 6.09421C17.875 7.22267 18.7876 8.12544 19.9062 8.12544C21.0347 8.12544 21.9375 7.21286 21.9375 6.09421C21.9375 4.97557 21.0249 4.06299 19.9062 4.06299Z" fill="black"/>
<path d="M13 6.5C9.41791 6.5 6.5 9.41796 6.5 13.0001C6.5 16.5822 9.41791 19.5002 13 19.5002C16.5821 19.5002 19.5 16.5822 19.5 13.0001C19.5 9.41796 16.5821 6.5 13 6.5ZM13 17.1643C10.7015 17.1643 8.83582 15.2986 8.83582 13.0001C8.83582 10.7016 10.7015 8.83586 13 8.83586C15.2985 8.83586 17.1642 10.7016 17.1642 13.0001C17.1642 15.2986 15.291 17.1643 13 17.1643Z" fill="black"/>
<path d="M18.1831 26H7.80955C3.50438 26 0 22.4946 0 18.1882V7.81176C0 3.50537 3.50438 0 7.80955 0H18.1904C22.4956 0 26 3.50537 26 7.81176V18.1956C25.9927 22.4946 22.4883 26 18.1831 26ZM7.80955 2.44714C4.85617 2.44714 2.44645 4.8502 2.44645 7.81176V18.1956C2.44645 21.1498 4.84883 23.5602 7.80955 23.5602H18.1904C21.1438 23.5602 23.5535 21.1572 23.5535 18.1956V7.81176C23.5535 4.85755 21.1512 2.44714 18.1904 2.44714H7.80955Z" fill="black"/>
</svg>
