<svg width="109" height="66" fill="none" xmlns="http://www.w3.org/2000/svg"><path d="M108.272 13.998l.28-.339.022-.378.102-.22.062-.242-.124-.44-.16-.32-.226-.26-.484-.44-.583-.32-.062-.12-.262-.158-.284.08-.262.18-.302.097h-1.151l-.225.122h-.037l-.084-.1-.28-.56-.222-.76-.204-.48-1.19-1.56-.059-.022-.065-.018h-.059l-.302.159-.24.021-.266-.061-.324-.12h-.12l-.062.019-.12.1-.12.04-.124-.018-.098-.1-.79-1.2-.179-.48-.022-.34.04-.28v-.242l-.12-.198-.124-.018-.44.018v-.382l.24-.718-.564-.28-.546-.08-.528.198-.16.18h-.04l-.383-.061-.306.382-.28.22-.302.08-.972-.098-.284.018-.299.101-.852.04-.24.1-.485.282-.688.097-.826.422-.488.036-.502-.159-.426-.32-.383-.44-.91-1.377-.12-.26-.2-.98-.142-.282-.266-.057h-.605l-.243-.123-.099-.159-.142-.461L86.86.76l-.142-.123-.28-.115-.546-.321-.226-.061-.827.26-.542.017-.266.061-.324.18-.138.22-.102.26-.182.263-.244.137-.179-.079-.204-.159-.283-.122-.525.122-1.252.599-.404-.101-.325-.321-.44-.198-.466-.08-.404.018-.565-.04-.932-.497-.502-.06-.222-.062-.466-.44L75.627 0h-.262L71.97.779l-.99.061-.462.18-.022.18v.2l.04.422v.237l-.019.08-.225.32-.525.56-.24.32-.182.382-.626 1.9-.342.678-.405.602-.466.458-.364.18-.2-.08-.182-.198-.324-.162-.182.083-.484.44-.263.119-.283-.022-.16-.057-.143.018-.2.241-.062.159-.08.44-.124.22-.142.1-.302.12-.684.421-.609.198-.364.224-.724.678-.386.14-.342-.119-.608-.562-.383-.119-.582.22-.164-.022-.142-.216.04-.202.102-.202v-.22l-.284-.339-.382-.06-.747.14-.164-.08-.342-.421-.182-.159-.16-.04h-.164l-1.475.379-.284.162-.182.343-.138.915-.182.382v.062l.018.137v.241l-.018.12-.87.601-2.181-.04-.969.62-.182.04-1.999-.241-.972.14-.666-.04-.24.102-2.305.519-.284.22-.422.88-.16.118-.306.062-.139.079-.204.26.018.079.124.1.062.282-.164.98-.04.498.102.44.466.461.623.44-.422.14-.365.101-.284.199-.524.602-.386.238-.462.04-.485-.102-.586-.26-.728-.057-3.291.379-1.213.48-.604.06-1.98-.198-4.607.3-1.354-.361-1.049-.563-.16-.18-.124-.238-.302-.28-.342-.239-.244-.122-.182.021-.16.08h-.164l-.2-.199-.547-.8-.142-.101-.404-.08-.16-.06-.164-.141-1.653-2.181-.506-.418-1.052-.159-.827-.22-.586-.123-.586.361-1.009.84.16.202v.137l-.08.144-.04.198-.021.04-.139.1-.04.062.018.098.08.04.08.02.044.037-.062.422-.102.32-.16.242-.262.198-.568.12-.2.1v.26l.098.1.346.16.12.1.164.44.098.14-.222.282.022.396.102.483.018.758.08.241.142.162.182.12-.324.158-1.048.083-1.275.317-.604-.119-.244-.62-.222.18-.324.501-.178.177-.143.043-.91-.14-.182-.101-.182-.18-.12-.238-.058-.242-.084-.22-.204-.14-1.289-.502-.67-.079-.582.263-.102.238.018.321-.08.198-.142.14-.645.34-.204.162-.098.058-.08-.018-.084-.08-.098-.122-.124.122-.24.4-.142.177.284.162.888.36.445-.1 1.048.418.528-.097.342.158.284.379.139.483-.08.461.262.159.222.22.124.3-.022.36-.182.299-.463.202-.185.198.062.94-.83.639-1.734.779-.182-.3-.222-.14-.204.061-.16.3.04.9-.04.08-.08.04-.084.06v.141l.04.101.102.036.062.022.04.04.484 1.02.062.378-.102.321-.222.202-.506.26.062.4-.244.519.062.378.102.083h.262l.102.163v.194l-.142.4v.123l.222.14.543-.262.265.021.2.281-.08.282-.364.479-.342.198-.102.34.12.302.324.119.183.1.061.12-.061.119-.183.122-.728.3-.2.18.462.058.223.079.222.22.083.263-.305.08h-.423l-.262.039-.08.057-.08.022-.084-.022-.08-.057-.28-.202-.346-.04-.648.083-.605-.122-.222.021-.16.26-.062.36-.142.101-.16.04-.164.14-.04.137.022.12v.14L2.1 38.4l-.12.08-.343.14-.404.3-.182.201-.59.779-.2.198-.262.123.666.158 2.203-.18.142.101.32.379.124.082.24.022.08.115-.04.202-.098.278-.102.26-.204.36-.058.26.04.082.222.66.182.242.142.26.139.18.222-.044v.382l.222.101.306.018.244.163.098.44-.222.216-.302.14-.142.22.12.321.306.22.564.339.586.84.546.461.223 1.002.098.08.688.418.222.22h.102l.058-.199.102-.079.12.018.146.101.422.08.343.241.302.357.262.44.306.382.484.3.2.4h.124l.12-.322.12.083.427.098.08.043.08.058.062.083.058.075.102.101.04-.08.04-.096h.08l.204.198.24.317.164.382-.062.36.284.8.102.142.12.097.605.7.404.742.164.198.848.681.142.18.08.242.182.199.768.58.24.119 1.315.04.182.1.645.84.083.22.2.74.04.22.12.381.245.098.262.04.142.201-.12.018-.204.101-.12.022v.158l.24.08.182.162.164.04.16-.282.102.4-.022.199.062.061.324-.018.382-.14.16.079.103.378.08-.057.062-.08.04-.079.142-.083 1.372.062.688.14.587.26.764.8.124.22.018.176.084.343.018.26.062.28.12.08.364.022 1.96.598.403.339.324.54v.12l.2-.036.102-.163.08-.18.143-.08h1.372l1.697.459h.182l.182-.058.284-.202.142-.04h1.333l.302.101.484.36h.364l.284.3.28.097.285-.097.262-.14h.262l.262.338.102.022h.222l.124-.04.302-.238.564-.68.263-.181.364.158.426-.158.684-.58.204-.242.342-.678.24-.26h.023l.04-.14.04-.281.061-.12.365-.36.36-.04.79.278.626.343.204.018.16-.098.062-.162.08-.22.16-.238.205.18h.16l.284-.18.32-.1.182-.102.164-.18.24-.018h.08l.91.062.125.036.2.1.058-.04.022-.017.018-.062v-.017l-.04-.083-.036-.058-.084-.123-.018-.079.018-.08.044-.079.378-.26.164.019.24.04.288-.08.018-.678.244-.443.36-.158.365.14.142.278.08.162.08.04.284.158 1.413.14.447-.079.019-.04.163-.197.037-.184.022-.101.123-.317.219-.18.084-.058.2-.044.08-.018h.605l.265-.1.16-.18.124-.22.099-.16.021-.043.2-.097.183-.022.142-.057.262-.224.102-.158.058-.101.022-.062.04-.036.08-.1.222-.12.204-.1-.04-.18-.084-.163-.018-.058v-.021l-.022-.159.164-.18.08-.08.2-.118.182-.123.285-.12.12-.057.083-.021.2-.044h.347l.924-.176h.346l.343.119.768.48.564.36.284.06 1.577-.64.524-.12.124-.018 1.026.098.667.378.182-.018.324-.04.262-.14.142-.08.12-.021h.04l.262.061.062.04.022.022.16.22.102.057.019.022h.101l.364-.159.04-.022.28.12.871.742.645-.822 2.588-.083.383-.616.67.14.644.26.466.418.16.101.2.08h.124l.907-.181.324-.159.244-.26.08-.223.018-.335.084-.162.12-.04.142.058.138.021.124-.118v-.18l-.142-.52v-.22l.062-.122.626-.52.324-.18.343-.1.32.021.142.08.284.24.182.059.16-.018.24-.12.106-.043.28.062.609.26h.32l.142-.058h.146l.116.057.102.14.306.26.28-.1.769-.92.098-.058h.466l.142-.122.182-.357.142-.443.022-1.039.16-.5.262-.322.324-.097.688-.022.383-.28-.102-.498-.466-.88.043-.48.219-.36.284-.342.204-.419.058-.88.102-.439.244-.3.342-.082.586.04.343-.18.324-.44.138-.379.186-.26.444-.079.324-.18.28-.422.062-.458-.426-.299-.04-.043-.04-.058-.04-.061.022-.14.04-.138.058-.122.084-.12.342-.94.2-.382.346-.318.583-.162.164-.14.142-.3v-.26l-.062-.237-.018-.281.018-.281.022-.058.08-.022.724-.598.146-.162.302-1.14.058-.021V37.2l-.138-.281-.124-.101-.164-.018-.138-.062-.062-.198.626-.739.365-.342.79-.52.32-.32.102-.199.08-.4.062-.22.16-.22.364-.338.142-.18.102-.282v-.22l-.04-.22v-.26l.058-.262.182-.34.08-.22.183-.84.102-.277.626-.901.302-.32.284-.181.728-.22.32-.638-.018-.782-.142-.819-.04-.739.302-.58.485-.52.99-.742.79-.202.219-.158.08-.18.025-.18v-.181l.019-.159.404-.558.058-.202.062-.44.058-.18.124-.18.262-.199.12-.119.364-.523.182-.176.302-.163.285-.097.203-.021.747.119.222-.022.222-.076.12-.223.262-.941.485-.12 1.19.62.568.08.608-.08.583-.237.466-.404.404-.519.2-.159.324-.14.342-.04.106-.061.138-.26-.04-.18-.08-.159v-.198l.179-.32.265-.18.645-.242.266-.238.404-.743.262-.3-.586-.479-.142-.28z" fill="#000"/><circle cx="47.5" cy="24.5" r="2.5" fill="#fff"/></svg>