<svg width="26" height="26" fill="none" xmlns="http://www.w3.org/2000/svg"><path d="M19.906 4.063a2.029 2.029 0 00-2.031 2.031c0 1.129.913 2.031 2.031 2.031a2.029 2.029 0 002.032-2.03 2.035 2.035 0 00-2.032-2.032zM13 6.5A6.51 6.51 0 006.5 13a6.51 6.51 0 006.5 6.5 6.51 6.51 0 006.5-6.5A6.51 6.51 0 0013 6.5zm0 10.664A4.166 4.166 0 018.836 13 4.166 4.166 0 0113 8.836 4.166 4.166 0 0117.164 13 4.17 4.17 0 0113 17.164z" fill="#000"/><path d="M18.183 26H7.81C3.504 26 0 22.495 0 18.188V7.812C0 3.505 3.504 0 7.81 0h10.38C22.496 0 26 3.505 26 7.812v10.384C25.993 22.495 22.488 26 18.183 26zM7.81 2.447a5.37 5.37 0 00-5.364 5.365v10.384A5.37 5.37 0 007.81 23.56h10.38a5.37 5.37 0 005.363-5.364V7.812a5.37 5.37 0 00-5.363-5.365H7.81z" fill="#000"/></svg>